<?xml version="1.0" encoding="utf-8"?>
<!-- Generator: Adobe Illustrator 27.5.0, SVG Export Plug-In . SVG Version: 6.00 Build 0)  -->
<svg version="1.1" id="Layer_1" xmlns="http://www.w3.org/2000/svg" xmlns:xlink="http://www.w3.org/1999/xlink" x="0px" y="0px"
	 viewBox="0 0 211.1 54.21" style="enable-background:new 0 0 211.1 54.21;" xml:space="preserve">
<style type="text/css">
	.st0{fill:#57068C;}
	.st1{fill:#FFFFFF;}
</style>
<g>
	<g>
		<path class="st0" d="M61.94,13.23V4.06h2.67v9.18H61.94z"/>
		<path class="st0" d="M69.15,13.07h21.68V0.91h-2.68v9.74h-16.2c0-0.01,0-0.03,0.01-0.04c0.04-0.24,0.16-3.06,3.62-3.06h-0.12V5.08
			l0.09,0.01c-6.13,0-6.39,4.63-6.39,5.57L69.15,13.07z"/>
		<path class="st0" d="M94.09,5.14l0.03,7.3c0,0.83-0.22,1.46-0.65,1.89c-0.43,0.43-1.1,0.64-2.01,0.64h-0.68v2.1l0.76,0
			c0.87,0,1.63-0.09,2.27-0.28c0.65-0.19,1.19-0.48,1.63-0.87c0.43-0.39,0.76-0.9,0.97-1.52c0.21-0.62,0.32-1.37,0.32-2.25V5.14
			H94.09z"/>
		<path class="st0" d="M59.93,5.24h-2.67v5.57h-8.63V5.18h-0.01V5.17L45.98,5.2c-4.72,0.26-5.66,2.9-5.66,5.63c0,1.99,0,2.3,0,2.3
			h5.61h0.03c-0.09,0.52-0.28,0.94-0.6,1.25c-0.44,0.43-1.1,0.64-2.01,0.64H41.6v2.1l1.83,0c0.87,0,1.62-0.09,2.27-0.28
			c0.65-0.19,1.19-0.47,1.62-0.87c0.43-0.39,0.76-0.9,0.97-1.52c0.12-0.36,0.21-0.77,0.26-1.22h11.37V5.24z M45.93,10.63h-3.06
			c0-3.27,3.06-3.04,3.06-3.04V10.63z"/>
		<path class="st0" d="M116.2,5.24h-2.67v5.57h-6.8V5.18h-0.02V5.17l-2.62,0.03c-4.72,0.26-5.66,2.9-5.66,5.63c0,1.99,0,2.3,0,2.3
			h5.61h0.03c-0.08,0.52-0.28,0.94-0.6,1.25c-0.44,0.43-1.1,0.64-2.01,0.64h-1.76v2.1l1.83,0c0.87,0,1.63-0.09,2.28-0.28
			c0.65-0.19,1.19-0.47,1.62-0.87c0.43-0.39,0.76-0.9,0.97-1.52c0.12-0.36,0.21-0.77,0.26-1.22h9.53V5.24z M104.04,10.63h-3.06
			c0-3.27,3.06-3.04,3.06-3.04V10.63z"/>
		<path class="st0" d="M141.69,5.24v5.57h-6.63V5.24h-2.68v5.57h-5.83V5.18h-0.02V5.17l-2.62,0.03c-4.72,0.26-5.66,2.9-5.66,5.63
			c0,1.99,0,2.3,0,2.3h5.61h0.03c-0.09,0.52-0.29,0.94-0.6,1.25c-0.44,0.43-1.1,0.64-2.01,0.64h-1.76v2.1l1.83,0
			c0.86,0,1.62-0.09,2.27-0.28c0.65-0.19,1.19-0.47,1.63-0.87c0.43-0.39,0.76-0.9,0.97-1.52c0.13-0.36,0.21-0.77,0.26-1.22h7.31
			h1.25h9.3V5.24H141.69z M123.86,10.63h-3.06c0-3.27,3.06-3.04,3.06-3.04V10.63z"/>
		<path class="st0" d="M34.43,5.15h-5.36V0.39H26.4v4.76v5.58H17.9V5.14l-9.49,0v2.49h0.08c2.09,0.01,2.74,0.93,2.74,1.78
			c0,1.4-1.76,2.01-3.5,1.97H6.81c-4.06,0-3.84-2.69-3.84-2.69V5.15H0.16L0.16,8.97c0,2.58,2.97,4.51,6.25,4.51h1.74
			c5.9,0,5.76-3.97,5.76-3.97c0.03-0.71-0.15-1.34-0.46-1.88h1.79v5.46l18.94,0c4.63,0,4.9-3.29,4.9-3.94
			C39.07,9.15,39.25,5.15,34.43,5.15z M34.26,10.65h-5.18V7.56h5.13c1.88,0,2.15,1.11,2.15,1.57C36.35,9.56,36.32,10.65,34.26,10.65
			z"/>
		<path class="st0" d="M33.37,2.94c0,0.69-0.56,1.25-1.25,1.25c-0.69,0-1.25-0.56-1.25-1.25c0-0.69,0.56-1.25,1.25-1.25
			C32.8,1.69,33.37,2.25,33.37,2.94z"/>
		<path class="st0" d="M144.21,2.94c0,0.69-0.56,1.25-1.25,1.25c-0.69,0-1.25-0.56-1.25-1.25c0-0.69,0.56-1.25,1.25-1.25
			C143.65,1.69,144.21,2.25,144.21,2.94z"/>
		<path class="st0" d="M15.32,15.83c0,0.69-0.56,1.25-1.25,1.25c-0.69,0-1.25-0.56-1.25-1.25c0-0.69,0.56-1.25,1.25-1.25
			C14.76,14.58,15.32,15.14,15.32,15.83z"/>
		<path class="st0" d="M57.77,15.92c0,0.69-0.56,1.25-1.25,1.25c-0.69,0-1.25-0.56-1.25-1.25c0-0.69,0.56-1.25,1.25-1.25
			C57.21,14.67,57.77,15.23,57.77,15.92z"/>
		<g>
			<path class="st0" d="M7.03,15.83c0,0.69-0.56,1.25-1.25,1.25c-0.69,0-1.25-0.56-1.25-1.25c0-0.69,0.56-1.25,1.25-1.25
				C6.47,14.58,7.03,15.14,7.03,15.83z"/>
			<path class="st0" d="M9.9,15.83c0,0.69-0.56,1.25-1.25,1.25c-0.69,0-1.25-0.56-1.25-1.25c0-0.69,0.56-1.25,1.25-1.25
				C9.34,14.58,9.9,15.14,9.9,15.83z"/>
		</g>
		<g>
			<path class="st0" d="M112.31,15.92c0,0.69-0.56,1.25-1.25,1.25c-0.69,0-1.25-0.56-1.25-1.25c0-0.69,0.56-1.25,1.25-1.25
				C111.75,14.67,112.31,15.23,112.31,15.92z"/>
			<path class="st0" d="M115.17,15.92c0,0.69-0.56,1.25-1.25,1.25c-0.69,0-1.25-0.56-1.25-1.25c0-0.69,0.56-1.25,1.25-1.25
				C114.62,14.67,115.17,15.23,115.17,15.92z"/>
		</g>
		<g>
			<path class="st0" d="M132.34,15.92c0,0.69-0.56,1.25-1.25,1.25c-0.69,0-1.25-0.56-1.25-1.25c0-0.69,0.56-1.25,1.25-1.25
				C131.78,14.67,132.34,15.23,132.34,15.92z"/>
			<path class="st0" d="M135.2,15.92c0,0.69-0.56,1.25-1.25,1.25c-0.69,0-1.25-0.56-1.25-1.25c0-0.69,0.56-1.25,1.25-1.25
				C134.65,14.67,135.2,15.23,135.2,15.92z"/>
		</g>
		<path class="st0" d="M63.41,2.71V2.7c0-0.12,0.02-0.24,0.06-0.36c0.04-0.11,0.1-0.21,0.17-0.29c0.07-0.08,0.16-0.15,0.26-0.2
			c0.1-0.05,0.2-0.07,0.48-0.07V0.97c-0.41,0-0.65,0.05-0.86,0.14c-0.21,0.09-0.4,0.22-0.55,0.38c-0.16,0.16-0.28,0.34-0.36,0.56
			c-0.09,0.21-0.13,0.44-0.13,0.68v0.01c0,0.02,0,0.03,0,0.04h-0.54v0.87h2.71V2.76h-1.24C63.41,2.75,63.41,2.73,63.41,2.71z"/>
		<path class="st0" d="M80.9,7.17V7.15c0-0.17,0.03-0.32,0.08-0.47c0.05-0.15,0.13-0.28,0.23-0.39c0.09-0.11,0.21-0.2,0.34-0.26
			c0.13-0.06,0.27-0.09,0.64-0.09V4.85c-0.55,0-0.86,0.06-1.14,0.18c-0.29,0.12-0.53,0.29-0.74,0.5c-0.21,0.21-0.37,0.46-0.48,0.74
			c-0.12,0.28-0.18,0.58-0.18,0.9v0.02c0,0.02,0,0.04,0,0.05h-0.71V8.4h3.61V7.24H80.9C80.9,7.22,80.9,7.2,80.9,7.17z"/>
		<path class="st0" d="M204,5.09l-3.75-0.01v2.47h3.72c3.46,0,3.57,2.82,3.62,3.06c0,0.01,0,0.03,0.01,0.04h-13.2V0.91h-2.67v12.16
			h18.68l0-2.41C210.4,9.72,210.14,5.09,204,5.09z"/>
		<path class="st0" d="M203.81,14.67c-0.69,0-1.25,0.56-1.25,1.25c0,0.69,0.56,1.25,1.25,1.25c0.69,0,1.25-0.56,1.25-1.25
			C205.06,15.23,204.51,14.67,203.81,14.67z"/>
		<path class="st0" d="M153.64,4.19c0.69,0,1.25-0.56,1.25-1.25c0-0.69-0.56-1.25-1.25-1.25c-0.69,0-1.25,0.56-1.25,1.25
			C152.39,3.63,152.95,4.19,153.64,4.19z"/>
		<path class="st0" d="M156.5,4.19c0.69,0,1.25-0.56,1.25-1.25c0-0.69-0.56-1.25-1.25-1.25c-0.69,0-1.25,0.56-1.25,1.25
			C155.25,3.63,155.81,4.19,156.5,4.19z"/>
		<path class="st0" d="M184.14,5.04l-2.62-0.03v0.01h-0.02v5.63h-10.29c-0.06-0.24-0.1-0.48-0.1-0.74V9.88
			c0-0.35,0.05-0.67,0.16-0.98c0.11-0.31,0.27-0.58,0.47-0.81c0.2-0.23,0.44-0.41,0.71-0.55c0.27-0.13,0.58-0.2,0.91-0.2
			c0.47,0,0.87,0.09,1.19,0.28c0.32,0.18,0.63,0.43,0.93,0.75l1.61-1.73c-0.44-0.49-0.95-0.87-1.53-1.15
			c-0.58-0.28-1.31-0.42-2.19-0.42c-0.72,0-1.37,0.13-1.97,0.38c-0.6,0.26-1.11,0.6-1.54,1.04c-0.43,0.44-0.76,0.96-1.01,1.55
			c-0.24,0.59-0.36,1.22-0.36,1.88v0.03c0,0.24,0.02,0.47,0.05,0.71h-9.97V5.12h-3.08c-5.42,0-6.34,3.97-6.45,5.54h-0.01v0.12
			c-0.01,0.17-0.01,0.3,0,0.39v0.03h0v1.87h40.77v-2.41h-0.01C189.81,7.93,188.86,5.3,184.14,5.04z M151.78,10.66
			c0-0.38-0.11-3.12,3.73-3.12h0.41v3.12H151.78z M184.2,10.65V7.43c0,0,3.06-0.23,3.06,3.22H184.2z"/>
	</g>
	<g>
		<g>
			<path class="st0" d="M94.67,32.33h3.15l6.64,15.62h-3.57l-1.42-3.48h-6.56l-1.42,3.48h-3.48L94.67,32.33z M98.26,41.46
				l-2.06-5.03l-2.06,5.03H98.26z"/>
			<path class="st0" d="M106.22,32.44h7.2c1.78,0,3.17,0.49,4.05,1.38c0.71,0.71,1.06,1.57,1.06,2.64v0.04
				c0,1.75-0.93,2.72-2.04,3.34c1.8,0.69,2.9,1.73,2.9,3.81v0.04c0,2.84-2.3,4.25-5.81,4.25h-7.38V32.44z M112.68,38.71
				c1.51,0,2.46-0.49,2.46-1.64v-0.04c0-1.02-0.8-1.6-2.24-1.6h-3.37v3.28H112.68z M113.59,44.96c1.51,0,2.42-0.53,2.42-1.68v-0.04
				c0-1.04-0.78-1.68-2.53-1.68h-3.94v3.41H113.59z"/>
			<path class="st0" d="M120.96,41.3v-8.86h3.41v8.77c0,2.53,1.26,3.83,3.35,3.83c2.08,0,3.34-1.26,3.34-3.72v-8.88h3.41v8.75
				c0,4.7-2.64,7-6.8,7C123.5,48.19,120.96,45.86,120.96,41.3"/>
		</g>
		<g>
			<path class="st0" d="M142.35,32.47h6.05c4.87,0,8.24,3.35,8.24,7.71v0.04c0,4.36-3.37,7.75-8.24,7.75h-6.05V32.47z M148.4,44.9
				c2.79,0,4.68-1.88,4.68-4.63v-0.04c0-2.75-1.88-4.67-4.68-4.67h-2.64v9.35H148.4z"/>
			<polygon class="st0" points="158.52,32.47 161.93,32.47 161.93,38.61 168.22,38.61 168.22,32.47 171.63,32.47 171.63,47.98 
				168.22,47.98 168.22,41.76 161.93,41.76 161.93,47.98 158.52,47.98 			"/>
			<path class="st0" d="M180.33,32.36h3.14l6.64,15.62h-3.57l-1.42-3.48h-6.55l-1.42,3.48h-3.48L180.33,32.36z M183.91,41.49
				l-2.06-5.03l-2.06,5.03H183.91z"/>
			<path class="st0" d="M192.16,32.47h7.2c1.77,0,3.17,0.49,4.05,1.38c0.71,0.71,1.06,1.57,1.06,2.64v0.04
				c0,1.75-0.93,2.72-2.04,3.34c1.8,0.69,2.9,1.73,2.9,3.81v0.04c0,2.84-2.3,4.25-5.8,4.25h-7.38V32.47z M198.64,38.74
				c1.51,0,2.46-0.49,2.46-1.64v-0.04c0-1.02-0.8-1.6-2.24-1.6h-3.37v3.28H198.64z M199.54,44.99c1.51,0,2.42-0.53,2.42-1.68v-0.04
				c0-1.04-0.78-1.68-2.53-1.68h-3.94v3.41H199.54z"/>
			<rect x="207.3" y="32.47" class="st0" width="3.41" height="15.51"/>
		</g>
		<g>
			<g>
				<path class="st0" d="M34.53,32.53h3.14l7.25,9.53v-9.53h3.36V48h-2.89l-7.49-9.84V48h-3.36V32.53z"/>
				<path class="st0" d="M55.92,41.9l-5.95-9.37h3.98l3.69,6.21l3.76-6.21h3.87l-5.95,9.31V48h-3.4V41.9z"/>
				<path class="st0" d="M66.72,41.37v-8.84h3.4v8.75c0,2.52,1.26,3.83,3.34,3.83c2.08,0,3.34-1.26,3.34-3.71v-8.86h3.4v8.73
					c0,4.68-2.63,6.98-6.79,6.98C69.26,48.24,66.72,45.92,66.72,41.37z"/>
			</g>
			<g>
				<rect x="3.2" y="29.87" class="st1" width="18.83" height="23.2"/>
				<path class="st0" d="M27.46,54H0.23V26.76h27.23V54L27.46,54z M12.9,50.82c0.03,0.19,0.45,0.28,0.54,0l0.95-7.55h-2.31
					L12.9,50.82L12.9,50.82z M15.2,42.72v-1.14h-3.93v1.14H15.2L15.2,42.72z M14.07,41.02c4.98,0.18,5.34-4.36,5.36-6.06
					c0-0.1-0.05-0.11-0.07-0.04c-0.15,0.35-0.8,1.62-2.59,2.39c-1.6,0.69-2.57,2.25-2.74,3.65C14.02,41,14.05,41.02,14.07,41.02z
					 M13.52,40.7c0.79-3.78,3.87-3.88,4.14-4.59c0.43-1.12-0.36-3.11-0.56-3.34c-0.02-0.03-0.05-0.01-0.06,0.01
					c-0.42,0.92-1.1,1.79-1.59,2.19c-0.7,0.56-3.37,2.54-2,5.73C13.47,40.74,13.51,40.73,13.52,40.7z M12.98,40.84
					c-1.67-3.57,1.67-5.87,2.21-6.37c0.08-0.07,0.06-0.13,0.06-0.22c0-1.12-0.64-2.94-0.85-3.2c-0.03-0.04-0.05-0.02-0.07,0.02
					c-0.28,1.11-1.81,2.76-2.11,3.12c-2.58,3.06-1.99,4.93,0.7,6.69C12.96,40.91,13,40.88,12.98,40.84z M12.23,40.97
					c-2.79-1.67-2.51-4.04-1.36-5.79c0.03-0.04,0.03-0.1,0.03-0.17c-0.05-0.42-0.5-1.47-0.69-1.75c-0.05-0.07-0.09-0.07-0.1-0.01
					c-0.02,0.47-0.56,1.67-1.38,3.04c-0.88,1.46-0.88,4.63,3.49,4.76C12.26,41.04,12.27,40.99,12.23,40.97z"/>
			</g>
		</g>
	</g>
</g>
</svg>
